<svg height="480pt" viewBox="-16 0 480 480.00064" width="480pt" xmlns="http://www.w3.org/2000/svg"><path d="m98.441406 207.851562 13.601563 200.460938v63.6875c0 4.417969 3.582031 8 8 8h208c4.417969 0 8-3.582031 8-8v-63.6875l13.601562-200.460938c56.265625-3.035156 99.878907-50.324218 98.359375-106.652343-1.515625-56.324219-47.613281-101.199219-103.960937-101.199219-21.507813-.0742188-42.496094 6.605469-60 19.101562-35.945313-25.46875-84.054688-25.46875-120 0-17.503907-12.496093-38.492188-19.1757808-60-19.101562-56.347657 0-102.445313 44.875-103.9609378 101.199219-1.5195312 56.328125 42.0937498 103.617187 98.3593748 106.652343zm221.601563 256.148438h-192v-48h192zm-216-448c20.011719-.0625 39.433593 6.777344 54.992187 19.363281 2.925782 2.351563 7.089844 2.351563 10.015625 0 32.117188-25.816406 77.867188-25.816406 109.984375 0 2.925782 2.351563 7.089844 2.351563 10.015625 0 15.558594-12.585937 34.980469-19.425781 54.992188-19.363281 31.484375-.003906 60.574219 16.816406 76.277343 44.105469 15.699219 27.289062 15.625 60.890625-.203124 88.109375-15.824219 27.21875-44.988282 43.90625-76.472657 43.757812h-.046875l-1.28125-.066406c-4.25-.039062-7.804687 3.21875-8.132812 7.457031l-13.617188 200.636719h-193.046875l-13.617187-200.636719c-.238282-4.28125-3.847656-7.589843-8.132813-7.457031l-1.726562.09375c-48.601563 0-88-39.398438-88-88s39.398437-88 88-88zm0 0"/><path d="m224.042969 264c-4.417969 0-8 3.582031-8 8v96c0 4.417969 3.582031 8 8 8s8-3.582031 8-8v-96c0-4.417969-3.582031-8-8-8zm0 0"/><path d="m158.730469 264.109375c-4.359375.726563-7.304688 4.847656-6.578125 9.207031l16 96c.726562 4.359375 4.851562 7.300782 9.207031 6.574219 4.359375-.726563 7.300781-4.847656 6.574219-9.207031l-16-96c-.347656-2.09375-1.511719-3.964844-3.238282-5.195313-1.726562-1.234375-3.871093-1.730469-5.964843-1.378906zm0 0"/><path d="m289.355469 264.109375c-2.09375-.351563-4.238281.144531-5.964844 1.378906s-2.890625 3.101563-3.238281 5.195313l-16 96c-.726563 4.359375 2.214844 8.480468 6.574218 9.207031 4.355469.726563 8.480469-2.214844 9.207032-6.574219l16-96c.726562-4.359375-2.21875-8.480468-6.578125-9.207031zm0 0"/><path d="m16.042969 328v128c0 4.417969 3.582031 8 8 8h32c4.417969 0 8-3.582031 8-8v-128c-.03125-.84375-.199219-1.675781-.496094-2.46875 11.191406-12.464844 17.105469-28.789062 16.496094-45.53125 0-31.402344-17.570313-56-40-56-22.429688 0-40.0000002 24.597656-40.0000002 56-.6093748 16.742188 5.3046872 33.066406 16.5000002 45.53125-.300781.792969-.46875 1.625-.5 2.46875zm32 120h-16v-112h16zm-8-208c13.007812 0 24 18.316406 24 40s-10.992188 40-24 40c-13.007813 0-24-18.316406-24-40s10.992187-40 24-40zm0 0"/><path d="m392.042969 464h32c4.417969 0 8-3.582031 8-8v-120h8c4.417969 0 8-3.582031 8-8v-96c0-4.417969-3.582031-8-8-8s-8 3.582031-8 8v56h-16v-56c0-4.417969-3.582031-8-8-8s-8 3.582031-8 8v56h-16v-56c0-4.417969-3.582031-8-8-8s-8 3.582031-8 8v96c0 4.417969 3.582031 8 8 8h8v120c0 4.417969 3.582031 8 8 8zm24-16h-16v-112h16zm16-128h-48v-16h48zm0 0"/><path d="m155.800781 206.785156c41.804688 25.90625 94.679688 25.90625 136.484375 0 3.734375-2.347656 4.859375-7.273437 2.523438-11.015625-2.339844-3.738281-7.261719-4.882812-11.007813-2.554687-36.605469 22.695312-82.910156 22.695312-119.515625 0-3.746094-2.328125-8.667968-1.183594-11.007812 2.554687-2.335938 3.742188-1.210938 8.667969 2.523437 11.015625zm0 0"/></svg>